<svg id="Logo_Mobile" data-name="Logo Mobile" xmlns="http://www.w3.org/2000/svg" width="207.79" height="46" viewBox="0 0 207.79 46">
  <g id="Groupe_14" data-name="Groupe 14" transform="translate(0 1)">
    <path id="Tracé_16" data-name="Tracé 16" d="M-1258.767,2853.878a15.139,15.139,0,0,1-19.574,8.671,15.139,15.139,0,0,1-8.672-19.574,15.046,15.046,0,0,1,5.705-7.13v0c.17-.116.344-.226.518-.332.321-.2.647-.382.981-.551a5.721,5.721,0,0,1,4.37-.1,5.724,5.724,0,0,1,2.3,1.628c.032.036.061.074.091.109a9.258,9.258,0,0,0,3.71,2.619,9.247,9.247,0,0,0,4.3.576h.012c.163-.03.326-.051.494-.066l-.133.02c.068-.01.134-.017.2-.023a5.7,5.7,0,0,1,2.576.363,5.719,5.719,0,0,1,3.143,2.947c.15.39.284.787.4,1.187A15.06,15.06,0,0,1-1258.767,2853.878Z" transform="translate(1307.878 -2826.84)" fill="#00c853"/>
    <path id="Tracé_17" data-name="Tracé 17" d="M-1005.507,2792.54a5.737,5.737,0,0,1-4.409,5.781,5.736,5.736,0,0,1-3.6-.311,5.738,5.738,0,0,1,4.409-5.781A5.738,5.738,0,0,1-1005.507,2792.54Z" transform="translate(1052.844 -2787.443)" fill="#00c853"/>
    <path id="Tracé_18" data-name="Tracé 18" d="M-1524.165,2871.286a30.141,30.141,0,0,1-34.611,2.47l-.033-.02a18.578,18.578,0,0,1-6.256-25.481c3.3-5.465,10.143-6.793,15.85-3.945l.037.019a3.022,3.022,0,0,1,1.2,4.274,16.507,16.507,0,0,0-2.433,8.476,16.631,16.631,0,0,0,17,16.759,16.5,16.5,0,0,0,9.217-3.081.275.275,0,0,1,.061-.033C-1523.673,2870.553-1523.623,2870.873-1524.165,2871.286Z" transform="translate(1567.742 -2834.62)" fill="#00c853"/>
    <path id="Tracé_19" data-name="Tracé 19" d="M-1445.425,2729.027a2.192,2.192,0,0,1-1.772,2.152,2.219,2.219,0,0,1-.422.041,2.192,2.192,0,0,1-2.192-2.192,2.193,2.193,0,0,1,2.192-2.192,2.215,2.215,0,0,1,.525.063A2.194,2.194,0,0,1-1445.425,2729.027Z" transform="translate(1458.177 -2726.835)" fill="#00c853"/>
    <path id="Tracé_20" data-name="Tracé 20" d="M-1314.552,2753.893a2.193,2.193,0,0,1-1.772,2.152,2.217,2.217,0,0,1-.421.041,2.193,2.193,0,0,1-2.192-2.193,2.193,2.193,0,0,1,2.192-2.192,2.2,2.2,0,0,1,.525.063A2.194,2.194,0,0,1-1314.552,2753.893Z" transform="translate(1336.59 -2749.936)" fill="#00c853"/>
    <g id="Groupe_11" data-name="Groupe 11" transform="translate(15.694 3.584)">
      <g id="Groupe_10" data-name="Groupe 10" transform="translate(0 0)">
        <line id="Ligne_7" data-name="Ligne 7" x1="3.548" y2="5.747" transform="translate(0.604 0.373)" fill="#00c853"/>
        <rect id="Rectangle_9" data-name="Rectangle 9" width="6.754" height="1.419" transform="matrix(0.525, -0.851, 0.851, 0.525, 0, 5.747)" fill="#00c853"/>
      </g>
    </g>
    <g id="Groupe_13" data-name="Groupe 13" transform="translate(10.089 2.111)">
      <g id="Groupe_12" data-name="Groupe 12" transform="translate(0 0)">
        <line id="Ligne_8" data-name="Ligne 8" x2="1.555" y2="6.572" transform="translate(0.69 0.163)" fill="#00c853"/>
        <rect id="Rectangle_10" data-name="Rectangle 10" width="1.419" height="6.754" transform="translate(0 0.327) rotate(-13.309)" fill="#00c853"/>
      </g>
    </g>
  </g><text id="lumapple" transform="translate(57.79 35)" fill="#00c853" font-size="33" font-family="RoundedMplus1c-ExtraBold, 'Rounded Mplus 1c'" font-weight="800"><tspan x="0" y="0">lumapple</tspan></text>
  
</svg>
